<?xml version="1.0" encoding="UTF-8" standalone="no"?>
<!-- Created with Inkscape (http://www.inkscape.org/) -->

<svg
   width="170"
   height="170"
   id="svg2"
   version="1.1"
   xmlns="http://www.w3.org/2000/svg"
   xmlns:svg="http://www.w3.org/2000/svg"
   xmlns:rdf="http://www.w3.org/1999/02/22-rdf-syntax-ns#"
   xmlns:cc="http://creativecommons.org/ns#"
   xmlns:dc="http://purl.org/dc/elements/1.1/">
  <defs
     id="defs4" />
  <metadata
     id="metadata7">
    <rdf:RDF>
      <cc:Work
         rdf:about="">
        <dc:format>image/svg+xml</dc:format>
        <dc:type
           rdf:resource="http://purl.org/dc/dcmitype/StillImage" />
      </cc:Work>
    </rdf:RDF>
  </metadata>
  <g
     id="layer1"
     style="display:none"
     transform="translate(-380,-473.43362)">
    <path
       style="fill:#00ffff"
       d="m 464.29484,608.48516 c 0,-0.71429 -0.17857,-1.07143 -0.53572,-1.07143 -0.29464,0 -0.53571,-0.24107 -0.53571,-0.53572 0,-0.29464 -0.24107,-0.53571 -0.53571,-0.53571 -0.33334,0 -0.53572,-0.3373 -0.53572,-0.89286 0,-0.55555 -0.20238,-0.89285 -0.53571,-0.89285 -0.29465,0 -0.53572,-0.24108 -0.53572,-0.53572 0,-0.29464 -0.24107,-0.53571 -0.53571,-0.53571 -0.35714,0 -0.53572,-0.35715 -0.53572,-1.07143 0,-0.58929 -0.16071,-1.07143 -0.35714,-1.07143 -0.19643,0 -0.35714,-0.24107 -0.35714,-0.53571 0,-0.29465 -0.24107,-0.53572 -0.53572,-0.53572 -0.33333,0 -0.53571,-0.3373 -0.53571,-0.89286 0,-0.55555 -0.20238,-0.89285 -0.53572,-0.89285 -0.29464,0 -0.53571,-0.24107 -0.53571,-0.53572 0,-0.29464 -0.24107,-0.53571 -0.53571,-0.53571 -0.35715,0 -0.53572,-0.35714 -0.53572,-1.07143 0,-0.71429 -0.17857,-1.07143 -0.53571,-1.07143 -0.33333,0 -0.53572,-0.3373 -0.53572,-0.89286 0,-0.49107 -0.16071,-0.89285 -0.35714,-0.89285 -0.19643,0 -0.35714,-0.24107 -0.35714,-0.53572 0,-0.29464 -0.22365,-0.53571 -0.497,-0.53571 -0.27335,0 -0.59784,-0.40179 -0.72109,-0.89286 -0.12325,-0.49107 -0.38174,-0.89286 -0.57443,-0.89286 -0.19269,0 -0.35034,-0.24107 -0.35034,-0.53571 0,-0.29464 -0.24107,-0.53571 -0.53571,-0.53571 -0.35715,0 -0.53572,-0.35715 -0.53572,-1.07143 0,-0.71429 -0.17857,-1.07143 -0.53571,-1.07143 -0.29465,0 -0.53572,-0.24107 -0.53572,-0.53572 0,-0.29464 -0.14329,-0.53571 -0.31842,-0.53571 -0.17514,0 -0.41927,-0.40179 -0.54252,-0.89286 -0.12325,-0.49107 -0.38175,-0.89285 -0.57443,-0.89285 -0.19269,0 -0.35034,-0.24108 -0.35034,-0.53572 0,-0.29464 -0.22365,-0.53571 -0.497,-0.53571 -0.27335,0 -0.59784,-0.40179 -0.72109,-0.89286 -0.12325,-0.49107 -0.38174,-0.89286 -0.57443,-0.89286 -0.19268,0 -0.35034,-0.32143 -0.35034,-0.71428 0,-0.39683 -0.23809,-0.71429 -0.53571,-0.71429 -0.33333,0 -0.53572,-0.3373 -0.53572,-0.89286 0,-0.49107 -0.16071,-0.89285 -0.35714,-0.89285 -0.19643,0 -0.35714,-0.24107 -0.35714,-0.53572 0,-0.29464 -0.22365,-0.53571 -0.497,-0.53571 -0.27335,0 -0.59784,-0.40179 -0.72109,-0.89286 -0.12325,-0.49107 -0.38174,-0.89286 -0.57443,-0.89286 -0.19269,0 -0.35034,-0.24107 -0.35034,-0.53571 0,-0.29464 -0.24107,-0.53571 -0.53571,-0.53571 -0.33334,0 -0.53572,-0.3373 -0.53572,-0.89286 0,-0.55556 -0.20238,-0.89286 -0.53571,-0.89286 -0.29762,0 -0.53572,-0.31746 -0.53572,-0.71428 0,-0.39286 -0.16071,-0.71429 -0.35714,-0.71429 -0.19643,0 -0.35714,-0.40179 -0.35714,-0.89286 0,-0.55555 -0.20238,-0.89285 -0.53572,-0.89285 -0.29464,0 -0.53571,-0.24108 -0.53571,-0.53572 0,-0.29464 -0.24107,-0.53571 -0.53572,-0.53571 -0.3351,0 -0.53571,-0.33855 -0.53571,-0.90407 0,-0.49724 -0.24107,-0.99657 -0.53571,-1.10964 -0.29465,-0.11306 -0.53572,-0.42945 -0.53572,-0.70308 0,-0.27362 -0.24107,-0.4975 -0.53571,-0.4975 -0.33333,0 -0.53572,-0.3373 -0.53572,-0.89286 0,-0.49107 -0.16071,-0.89285 -0.35714,-0.89285 -0.19643,0 -0.35714,-0.24107 -0.35714,-0.53572 0,-0.29464 -0.24107,-0.53571 -0.53572,-0.53571 -0.31939,0 -0.53571,-0.32848 -0.53571,-0.81349 0,-0.79709 -1.09172,-2.04365 -1.7898,-2.04365 -0.19418,0 -0.35306,-0.48215 -0.35306,-1.07143 0,-0.71429 -0.17857,-1.07143 -0.53571,-1.07143 -0.29465,0 -0.53572,-0.24107 -0.53572,-0.53572 0,-0.29464 -0.16071,-0.53571 -0.35714,-0.53571 -0.19643,0 -0.35714,-0.40179 -0.35714,-0.89286 0,-0.55555 -0.20238,-0.89285 -0.53572,-0.89285 -0.29464,0 -0.53571,-0.24108 -0.53571,-0.53572 0,-0.29464 -0.24107,-0.53571 -0.53572,-0.53571 -0.3351,0 -0.53571,-0.33855 -0.53571,-0.90407 0,-0.49724 -0.24107,-0.99657 -0.53571,-1.10964 -0.29465,-0.11306 -0.53572,-0.42945 -0.53572,-0.70308 0,-0.27362 -0.24107,-0.4975 -0.53571,-0.4975 -0.33334,0 -0.53572,-0.3373 -0.53572,-0.89286 0,-0.49107 -0.16071,-0.89285 -0.35714,-0.89285 -0.19643,0 -0.35714,-0.24107 -0.35714,-0.53572 0,-0.29464 -0.24107,-0.53571 -0.53572,-0.53571 -0.35714,0 -0.53571,-0.35714 -0.53571,-1.07143 0,-0.71429 -0.17857,-1.07143 -0.53572,-1.07143 -0.29464,0 -0.53571,-0.16071 -0.53571,-0.35714 0,-0.19643 -0.24107,-0.35714 -0.53571,-0.35714 -0.35715,0 -0.53572,-0.35715 -0.53572,-1.07143 0,-0.71429 -0.17857,-1.07143 -0.53571,-1.07143 -0.29465,0 -0.53572,-0.24107 -0.53572,-0.53572 0,-0.29464 -0.16071,-0.53571 -0.35714,-0.53571 -0.19643,0 -0.35714,-0.40179 -0.35714,-0.89286 0,-0.55555 -0.20238,-0.89286 -0.53572,-0.89286 -0.29464,0 -0.53571,-0.24107 -0.53571,-0.53571 0,-0.29464 -0.24107,-0.53571 -0.53572,-0.53571 -0.35714,0 -0.53571,-0.35715 -0.53571,-1.07143 0,-0.71429 -0.17857,-1.07143 -0.53571,-1.07143 -0.29465,0 -0.53572,-0.24107 -0.53572,-0.53572 0,-0.29464 -0.24107,-0.53571 -0.53571,-0.53571 -0.33334,0 -0.53572,-0.3373 -0.53572,-0.89286 0,-0.49107 -0.16071,-0.89285 -0.35714,-0.89285 -0.19643,0 -0.35714,-0.24108 -0.35714,-0.53572 0,-0.29464 -0.24107,-0.53571 -0.53572,-0.53571 -0.35714,0 -0.53571,-0.35715 -0.53571,-1.07143 0,-0.71429 -0.17857,-1.07143 -0.53572,-1.07143 -0.29464,0 -0.53571,-0.16071 -0.53571,-0.35714 0,-0.19643 -0.24107,-0.35715 -0.53571,-0.35715 -0.35715,0 -0.53572,-0.35714 -0.53572,-1.07142 0,-0.71429 -0.17857,-1.07143 -0.53571,-1.07143 -0.29465,0 -0.53572,-0.24107 -0.53572,-0.53572 0,-0.29464 -0.16071,-0.53571 -0.35714,-0.53571 -0.19643,0 -0.35714,-0.40179 -0.35714,-0.89286 0,-0.55555 -0.20238,-0.89286 -0.53572,-0.89286 -0.29464,0 -0.53571,-0.24107 -0.53571,-0.53571 0,-0.29464 -0.24107,-0.53571 -0.53572,-0.53571 -0.35714,0 -0.53571,-0.35715 -0.53571,-1.07143 0,-0.71429 -0.17857,-1.07143 -0.53571,-1.07143 -0.29465,0 -0.53572,-0.24107 -0.53572,-0.53572 0,-0.29464 -0.24107,-0.53571 -0.53571,-0.53571 -0.33334,0 -0.53572,-0.3373 -0.53572,-0.89286 0,-0.49107 -0.16071,-0.89285 -0.35714,-0.89285 -0.19643,0 -0.35714,-0.24108 -0.35714,-0.53572 0,-0.29464 -0.24107,-0.53571 -0.53572,-0.53571 -0.35714,0 -0.53571,-0.35715 -0.53571,-1.07143 0,-0.71429 -0.17857,-1.07143 -0.53572,-1.07143 -0.29464,0 -0.53571,-0.16071 -0.53571,-0.35714 0,-0.19643 -0.24107,-0.35715 -0.53571,-0.35715 -0.35715,0 -0.53572,-0.35714 -0.53572,-1.07142 0,-0.71429 -0.17857,-1.07143 -0.53571,-1.07143 -0.29465,0 -0.53572,-0.24107 -0.53572,-0.53572 0,-0.29464 -0.16071,-0.53571 -0.35714,-0.53571 -0.19643,0 -0.35714,-0.40179 -0.35714,-0.89286 0,-0.55555 -0.20238,-0.89286 -0.53572,-0.89286 -0.29464,0 -0.53571,-0.24107 -0.53571,-0.53571 0,-0.29464 -0.24107,-0.53571 -0.53572,-0.53571 -0.33333,0 -0.53571,-0.33731 -0.53571,-0.89286 l 0,-0.89286 67.85714,0 67.85715,0 0,0.89286 c 0,0.55555 -0.20239,0.89286 -0.53572,0.89286 -0.29464,0 -0.53571,0.24107 -0.53571,0.53571 0,0.29464 -0.16072,0.53571 -0.35714,0.53571 -0.19643,0 -0.35715,0.40179 -0.35715,0.89286 0,0.55556 -0.20238,0.89286 -0.53571,0.89286 -0.29464,0 -0.53572,0.24107 -0.53572,0.53571 0,0.29465 -0.24107,0.53572 -0.53571,0.53572 -0.35714,0 -0.53571,0.35714 -0.53571,1.07143 0,0.71428 -0.17858,1.07142 -0.53572,1.07142 -0.29464,0 -0.53571,0.16072 -0.53571,0.35715 0,0.19643 -0.24107,0.35714 -0.53572,0.35714 -0.35714,0 -0.53571,0.35714 -0.53571,1.07143 0,0.58928 -0.16072,1.07143 -0.35714,1.07143 -0.19643,0 -0.35715,0.24107 -0.35715,0.53571 0,0.29464 -0.24107,0.53572 -0.53571,0.53572 -0.33333,0 -0.53572,0.3373 -0.53572,0.89285 0,0.55556 -0.20238,0.89286 -0.53571,0.89286 -0.29464,0 -0.53571,0.24107 -0.53571,0.53571 0,0.29465 -0.24108,0.53572 -0.53572,0.53572 -0.35714,0 -0.53571,0.35714 -0.53571,1.07143 0,0.71428 -0.17857,1.07143 -0.53572,1.07143 -0.29464,0 -0.53571,0.24107 -0.53571,0.53571 0,0.29464 -0.16072,0.53571 -0.35714,0.53571 -0.19643,0 -0.35715,0.24108 -0.35715,0.53572 0,0.29464 -0.24107,0.53571 -0.53571,0.53571 -0.33333,0 -0.53572,0.3373 -0.53572,0.89286 0,0.55556 -0.20238,0.89286 -0.53571,0.89286 -0.29464,0 -0.53571,0.24107 -0.53571,0.53571 0,0.29464 -0.24108,0.53572 -0.53572,0.53572 -0.33333,0 -0.53571,0.3373 -0.53571,0.89285 0,0.55556 -0.20239,0.89286 -0.53572,0.89286 -0.29464,0 -0.53571,0.24107 -0.53571,0.53571 0,0.29465 -0.16072,0.53572 -0.35714,0.53572 -0.19643,0 -0.35715,0.48214 -0.35715,1.07143 0,0.71428 -0.17857,1.07143 -0.53571,1.07143 -0.33333,0 -0.53572,0.3373 -0.53572,0.89285 0,0.55556 -0.20238,0.89286 -0.53571,0.89286 -0.29464,0 -0.53571,0.24107 -0.53571,0.53571 0,0.29465 -0.24108,0.53572 -0.53572,0.53572 -0.35714,0 -0.53571,0.35714 -0.53571,1.07143 0,0.71428 -0.17857,1.07143 -0.53572,1.07143 -0.29464,0 -0.53571,0.24107 -0.53571,0.53571 0,0.29464 -0.16072,0.53571 -0.35714,0.53571 -0.19643,0 -0.35715,0.40179 -0.35715,0.89286 0,0.55556 -0.20238,0.89286 -0.53571,0.89286 -0.29464,0 -0.53572,0.24107 -0.53572,0.53571 0,0.29465 -0.24107,0.53572 -0.53571,0.53572 -0.35714,0 -0.53571,0.35714 -0.53571,1.07143 0,0.71428 -0.17858,1.07143 -0.53572,1.07143 -0.29464,0 -0.53571,0.16071 -0.53571,0.35714 0,0.19643 -0.24107,0.35714 -0.53572,0.35714 -0.35714,0 -0.53571,0.35714 -0.53571,1.07143 0,0.58929 -0.16072,1.07143 -0.35714,1.07143 -0.19643,0 -0.35715,0.24107 -0.35715,0.53571 0,0.29465 -0.24107,0.53572 -0.53571,0.53572 -0.33333,0 -0.53572,0.3373 -0.53572,0.89285 0,0.55556 -0.20238,0.89286 -0.53571,0.89286 -0.29464,0 -0.53571,0.24107 -0.53571,0.53572 0,0.29464 -0.24108,0.53571 -0.53572,0.53571 -0.35714,0 -0.53571,0.35714 -0.53571,1.07143 0,0.71428 -0.17857,1.07143 -0.53572,1.07143 -0.29464,0 -0.53571,0.24107 -0.53571,0.53571 0,0.29464 -0.16072,0.53572 -0.35714,0.53572 -0.19643,0 -0.35715,0.40178 -0.35715,0.89285 0,0.55556 -0.20238,0.89286 -0.53571,0.89286 -0.29464,0 -0.53572,0.22388 -0.53572,0.4975 0,0.27363 -0.24107,0.59001 -0.53571,0.70308 -0.29464,0.11307 -0.53571,0.6124 -0.53571,1.10964 0,0.49724 -0.15888,0.90407 -0.35307,0.90407 -0.69807,0 -1.78979,1.24656 -1.78979,2.04365 0,0.44742 -0.16072,0.81349 -0.35714,0.81349 -0.19643,0 -0.35715,0.24107 -0.35715,0.53571 0,0.29465 -0.24107,0.53572 -0.53571,0.53572 -0.33333,0 -0.53572,0.3373 -0.53572,0.89285 0,0.55556 -0.20238,0.89286 -0.53571,0.89286 -0.29464,0 -0.53571,0.22388 -0.53571,0.4975 0,0.27363 -0.24108,0.59002 -0.53572,0.70308 -0.29464,0.11307 -0.53571,0.6124 -0.53571,1.10964 0,0.56552 -0.20061,0.90407 -0.53572,0.90407 -0.29464,0 -0.53571,0.24107 -0.53571,0.53571 0,0.29464 -0.16072,0.53572 -0.35714,0.53572 -0.19643,0 -0.35715,0.40178 -0.35715,0.89285 0,0.55556 -0.20238,0.89286 -0.53571,0.89286 -0.29762,0 -0.53572,0.31746 -0.53572,0.71429 0,0.39285 -0.15765,0.71428 -0.35034,0.71428 -0.19268,0 -0.45117,0.40179 -0.57443,0.89286 -0.12325,0.49107 -0.44774,0.89286 -0.72109,0.89286 -0.27334,0 -0.49699,0.24107 -0.49699,0.53571 0,0.29464 -0.15766,0.53571 -0.35034,0.53571 -0.19269,0 -0.45118,0.40179 -0.57443,0.89286 -0.12325,0.49107 -0.36739,0.89286 -0.54252,0.89286 -0.17513,0 -0.31843,0.24107 -0.31843,0.53571 0,0.29465 -0.24107,0.53572 -0.53571,0.53572 -0.33333,0 -0.53572,0.3373 -0.53572,0.89285 0,0.55556 -0.20238,0.89286 -0.53571,0.89286 -0.29464,0 -0.53571,0.24107 -0.53571,0.53572 0,0.29464 -0.24108,0.53571 -0.53572,0.53571 -0.35714,0 -0.53571,0.35714 -0.53571,1.07143 0,0.71428 -0.17857,1.07143 -0.53572,1.07143 -0.29464,0 -0.53571,0.17219 -0.53571,0.38265 0,0.21046 -0.22959,0.61224 -0.51021,0.89286 -0.76793,0.76794 -1.27551,0.61567 -1.27551,-0.38266 0,-0.49107 -0.16071,-0.89285 -0.35714,-0.89285 -0.19643,0 -0.35714,-0.24107 -0.35714,-0.53572 0,-0.29464 -0.24107,-0.53571 -0.53572,-0.53571 -0.35714,0 -0.53571,-0.35714 -0.53571,-1.07143 0,-0.71429 -0.17857,-1.07143 -0.53571,-1.07143 -0.29465,0 -0.53572,-0.16071 -0.53572,-0.35714 0,-0.19643 -0.24107,-0.35714 -0.53571,-0.35714 -0.35715,0 -0.53572,-0.35715 -0.53572,-1.07143 0,-0.71429 -0.17857,-1.07143 -0.53571,-1.07143 -0.29464,0 -0.53572,-0.24107 -0.53572,-0.53572 0,-0.29464 -0.16071,-0.53571 -0.35714,-0.53571 -0.19643,0 -0.35714,-0.40179 -0.35714,-0.89286 0,-0.55555 -0.20238,-0.89285 -0.53572,-0.89285 -0.29464,0 -0.53571,-0.24108 -0.53571,-0.53572 0,-0.29464 -0.24107,-0.53571 -0.53571,-0.53571 -0.35715,0 -0.53572,-0.35715 -0.53572,-1.07143 0,-0.71429 -0.17857,-1.07143 -0.53571,-1.07143 -0.29465,0 -0.53572,-0.24107 -0.53572,-0.53571 0,-0.29465 -0.24107,-0.53572 -0.53571,-0.53572 -0.33333,0 -0.53572,-0.3373 -0.53572,-0.89286 0,-0.55555 0.20239,-0.89285 0.53572,-0.89285 0.33333,0 0.53571,-0.3373 0.53571,-0.89286 0,-0.55556 0.20238,-0.89286 0.53572,-0.89286 0.35714,0 0.53571,-0.35714 0.53571,-1.07143 0,-0.71428 0.17857,-1.07142 0.53572,-1.07142 0.29464,0 0.53571,-0.24108 0.53571,-0.53572 0,-0.29464 0.24107,-0.53571 0.53571,-0.53571 0.33334,0 0.53572,-0.3373 0.53572,-0.89286 0,-0.49107 0.16071,-0.89286 0.35714,-0.89286 0.19643,0 0.35714,-0.24107 0.35714,-0.53571 0,-0.29464 0.24108,-0.53572 0.53572,-0.53572 0.35714,0 0.53571,-0.35714 0.53571,-1.07142 0,-0.58929 0.15888,-1.07143 0.35306,-1.07143 0.69808,0 1.7898,-1.24657 1.7898,-2.04366 0,-0.485 0.21632,-0.81349 0.53571,-0.81349 0.29465,0 0.53572,-0.24107 0.53572,-0.53571 0,-0.29464 0.16071,-0.53571 0.35714,-0.53571 0.19643,0 0.35714,-0.40179 0.35714,-0.89286 0,-0.55556 0.20239,-0.89286 0.53572,-0.89286 0.29464,0 0.53571,-0.22388 0.53571,-0.4975 0,-0.27363 0.24107,-0.59001 0.53572,-0.70308 0.29464,-0.11307 0.53571,-0.6124 0.53571,-1.10964 0,-0.56552 0.20061,-0.90406 0.53572,-0.90406 0.29464,0 0.53571,-0.24108 0.53571,-0.53572 0,-0.29464 0.24107,-0.53571 0.53571,-0.53571 0.33334,0 0.53572,-0.3373 0.53572,-0.89286 0,-0.49107 0.16071,-0.89286 0.35714,-0.89286 0.19643,0 0.35714,-0.24107 0.35714,-0.53571 0,-0.29464 0.24108,-0.53572 0.53572,-0.53572 0.35714,0 0.53571,-0.35714 0.53571,-1.07142 0,-0.71429 0.17857,-1.07143 0.53572,-1.07143 0.29464,0 0.53571,-0.24108 0.53571,-0.53572 0,-0.29464 0.15765,-0.53571 0.35034,-0.53571 0.19269,0 0.45118,-0.40179 0.57443,-0.89286 0.12325,-0.49107 0.44774,-0.89286 0.72109,-0.89286 0.27335,0 0.497,-0.24107 0.497,-0.53571 0,-0.29464 0.16071,-0.53572 0.35714,-0.53572 0.19643,0 0.35714,-0.40178 0.35714,-0.89285 0,-0.55556 0.20239,-0.89286 0.53572,-0.89286 0.29762,0 0.53571,-0.31746 0.53571,-0.71429 0,-0.39285 0.15766,-0.71428 0.35034,-0.71428 0.19269,0 0.45118,-0.40179 0.57443,-0.89286 0.12325,-0.49107 0.44774,-0.89286 0.72109,-0.89286 0.27335,0 0.497,-0.24107 0.497,-0.53571 0,-0.29464 0.15765,-0.53571 0.35034,-0.53571 0.19268,0 0.45118,-0.40179 0.57443,-0.89286 0.12325,-0.49107 0.36738,-0.89286 0.54252,-0.89286 0.17513,0 0.31842,-0.24107 0.31842,-0.53571 0,-0.29465 0.24108,-0.53572 0.53572,-0.53572 0.35714,0 0.53571,-0.35714 0.53571,-1.07143 0,-0.71428 0.17857,-1.07142 0.53572,-1.07142 0.29464,0 0.53571,-0.16072 0.53571,-0.35715 0,-0.19643 0.24107,-0.35714 0.53572,-0.35714 0.37415,0 0.53571,-0.37698 0.53571,-1.25 l 0,-1.25 -33.21429,0 c -32.56614,0 -33.21428,0.0134 -33.21428,0.68878 0,0.37882 0.24107,0.92984 0.53571,1.22449 0.29464,0.29464 0.53572,0.7079 0.53572,0.91836 0,0.21046 0.22365,0.38266 0.49699,0.38266 0.27335,0 0.59784,0.40178 0.72109,0.89285 0.12326,0.49107 0.38175,0.89286 0.57443,0.89286 0.19269,0 0.35034,0.32143 0.35034,0.71429 0,0.39682 0.2381,0.71428 0.53572,0.71428 0.33333,0 0.53571,0.3373 0.53571,0.89286 0,0.49107 0.16072,0.89286 0.35714,0.89286 0.19643,0 0.35715,0.24107 0.35715,0.53571 0,0.29464 0.22365,0.53571 0.49699,0.53571 0.27335,0 0.59784,0.40179 0.72109,0.89286 0.12326,0.49107 0.38175,0.89286 0.57444,0.89286 0.19268,0 0.35033,0.32143 0.35033,0.71428 0,0.39683 0.2381,0.71429 0.53572,0.71429 0.33333,0 0.53571,0.3373 0.53571,0.89286 0,0.55555 0.20239,0.89285 0.53572,0.89285 0.29464,0 0.53571,0.24108 0.53571,0.53572 0,0.29464 0.14329,0.53571 0.31843,0.53571 0.17513,0 0.41926,0.40179 0.54251,0.89286 0.12326,0.49107 0.38175,0.89286 0.57444,0.89286 0.19268,0 0.35034,0.24107 0.35034,0.53571 0,0.29464 0.24107,0.53572 0.53571,0.53572 0.3351,0 0.53571,0.33854 0.53571,0.90406 0,0.49724 0.24108,0.99658 0.53572,1.10964 0.29464,0.11307 0.53571,0.42945 0.53571,0.70308 0,0.27362 0.24107,0.4975 0.53572,0.4975 0.33333,0 0.53571,0.3373 0.53571,0.89286 0,0.49107 0.16072,0.89286 0.35714,0.89286 0.19643,0 0.35715,0.24107 0.35715,0.53571 0,0.29464 0.24107,0.53572 0.53571,0.53572 0.33511,0 0.53572,0.33854 0.53572,0.90406 0,0.49724 0.24107,0.99657 0.53571,1.10964 0.29464,0.11307 0.53571,0.42945 0.53571,0.70308 0,0.27362 0.24108,0.4975 0.53572,0.4975 0.33333,0 0.53571,0.3373 0.53571,0.89286 0,0.55556 0.20239,0.89286 0.53572,0.89286 0.29464,0 0.53571,0.24107 0.53571,0.53571 0,0.29464 0.16072,0.53571 0.35714,0.53571 0.19643,0 0.35715,0.36607 0.35715,0.81349 0,0.79709 1.09172,2.04366 1.78979,2.04366 0.19419,0 0.35306,0.40683 0.35306,0.90406 0,0.49724 0.24108,0.99658 0.53572,1.10964 0.29464,0.11307 0.53571,0.42945 0.53571,0.70308 0,0.27362 0.24107,0.4975 0.53572,0.4975 0.33333,0 0.53571,0.3373 0.53571,0.89286 0,0.49107 0.16072,0.89286 0.35714,0.89286 0.19643,0 0.35715,0.24107 0.35715,0.53571 0,0.29464 0.24107,0.53572 0.53571,0.53572 0.35714,0 0.53572,0.35714 0.53572,1.07142 0,0.67719 0.18287,1.07143 0.49699,1.07143 0.27335,0 0.59784,0.40179 0.72109,0.89286 0.12326,0.49107 0.38175,0.89286 0.57443,0.89286 0.19269,0 0.35034,0.24107 0.35034,0.53571 0,0.29464 0.24108,0.53572 0.53572,0.53572 0.35714,0 0.53571,0.35714 0.53571,1.07142 0,0.58929 0.16072,1.07143 0.35715,1.07143 0.19642,0 0.35714,0.24107 0.35714,0.53572 0,0.29464 0.24107,0.53571 0.53571,0.53571 0.33333,0 0.53572,0.3373 0.53572,0.89286 0,0.55556 0.20238,0.89286 0.53571,0.89286 0.29464,0 0.53572,0.24107 0.53572,0.53571 0,0.29464 0.24107,0.53571 0.53571,0.53571 0.33333,0 0.53571,0.3373 0.53571,0.89286 0,0.55556 0.20239,0.89286 0.53572,0.89286 0.29464,0 0.53571,0.24107 0.53571,0.53571 0,0.29465 0.16072,0.53572 0.35715,0.53572 0.19642,0 0.35714,0.40683 0.35714,0.90406 0,0.49724 0.24107,0.99658 0.53571,1.10964 0.29465,0.11307 0.53572,0.42945 0.53572,0.70308 0,0.27362 0.24107,0.4975 0.53571,0.4975 0.33333,0 0.53572,0.3373 0.53572,0.89286 0,0.55556 0.20238,0.89286 0.53571,0.89286 0.29464,0 0.53571,0.24107 0.53571,0.53571 0,0.29464 0.24108,0.53572 0.53572,0.53572 0.3373,0 0.53571,0.34013 0.53571,0.91836 0,0.94176 0.72153,1.93878 1.40306,1.93878 0.21046,0 0.38266,0.48214 0.38266,1.07143 0,0.71428 0.17857,1.07143 0.53571,1.07143 0.29464,0 0.53572,0.24107 0.53572,0.53571 0,0.29464 0.24107,0.53571 0.53571,0.53571 0.33333,0 0.53571,0.3373 0.53571,0.89286 0,0.55556 0.20239,0.89286 0.53572,0.89286 0.29464,0 0.53571,0.24107 0.53571,0.53571 0,0.29465 -0.24107,0.53572 -0.53571,0.53572 -0.33333,0 -0.53572,0.3373 -0.53572,0.89285 0,0.55556 -0.20238,0.89286 -0.53571,0.89286 -0.29762,0 -0.53571,0.31746 -0.53571,0.71429 0,0.39285 -0.15766,0.71428 -0.35034,0.71428 -0.19269,0 -0.45118,0.40179 -0.57444,0.89286 -0.12325,0.49107 -0.44774,0.89286 -0.72109,0.89286 -0.29203,0 -0.49699,0.36821 -0.49699,0.89285 0,0.49108 -0.16072,0.89286 -0.35714,0.89286 -0.19643,0 -0.35715,0.24107 -0.35715,0.53572 0,0.29464 -0.24107,0.53571 -0.53571,0.53571 -0.35714,0 -0.53572,0.35714 -0.53572,1.07143 0,0.71428 -0.17857,1.07143 -0.53571,1.07143 -0.29464,0 -0.53571,0.24107 -0.53571,0.53571 0,0.29464 -0.24108,0.53572 -0.53572,0.53572 -0.33333,0 -0.53571,0.3373 -0.53571,0.89285 0,0.55556 -0.20239,0.89286 -0.53572,0.89286 -0.29464,0 -0.53571,0.24107 -0.53571,0.53571 0,0.29465 -0.16072,0.53572 -0.35714,0.53572 -0.19643,0 -0.35715,0.48214 -0.35715,1.07143 0,0.90476 -0.13889,1.07143 -0.89285,1.07143 -0.75397,0 -0.89286,-0.16667 -0.89286,-1.07143 z"
       id="path3038" />
    <path
       style="fill:#00ffff"
       d="m 486.08055,604.02087 c 0,-0.33333 -0.3373,-0.53571 -0.89285,-0.53571 -0.55556,0 -0.89286,-0.20238 -0.89286,-0.53572 0,-0.29464 -0.25255,-0.53571 -0.56123,-0.53571 -0.7218,0 -1.58163,-0.85983 -1.58163,-1.58163 0,-0.30868 -0.24107,-0.56123 -0.53571,-0.56123 -0.77551,0 -0.77551,-4.47442 0,-4.77201 0.29464,-0.11306 0.53571,-0.6124 0.53571,-1.10964 0,-0.56552 0.20061,-0.90406 0.53572,-0.90406 0.29464,0 0.53571,-0.24107 0.53571,-0.53572 0,-0.29464 0.24107,-0.53571 0.53571,-0.53571 0.29465,0 0.53572,-0.16072 0.53572,-0.35714 0,-0.20834 1.19047,-0.35715 2.85714,-0.35715 1.66667,0 2.85714,0.14881 2.85714,0.35715 0,0.19642 0.40179,0.35714 0.89286,0.35714 0.55556,0 0.89286,0.20238 0.89286,0.53571 0,0.29465 0.24107,0.53572 0.53571,0.53572 0.35715,0 0.53572,0.35714 0.53572,1.07143 0,0.71428 0.17857,1.07142 0.53571,1.07142 0.41126,0 0.53572,0.45635 0.53572,1.96429 0,1.50794 -0.12446,1.96429 -0.53572,1.96429 -0.33333,0 -0.53571,0.3373 -0.53571,0.89285 0,0.55556 -0.20238,0.89286 -0.53572,0.89286 -0.29464,0 -0.53571,0.24107 -0.53571,0.53571 0,0.29465 -0.16072,0.53572 -0.35714,0.53572 -0.19643,0 -0.35715,0.24107 -0.35715,0.53571 0,0.35715 -0.35714,0.53572 -1.07143,0.53572 -0.71428,0 -1.07142,0.17857 -1.07142,0.53571 0,0.38691 -0.39683,0.53572 -1.42858,0.53572 -1.03174,0 -1.42857,-0.14881 -1.42857,-0.53572 z m 3.92857,-2.85714 c 0,-0.29464 0.24108,-0.53572 0.53572,-0.53572 0.35714,0 0.53571,-0.35714 0.53571,-1.07142 0,-0.71429 0.17857,-1.07143 0.53572,-1.07143 0.35714,0 0.53571,-0.35715 0.53571,-1.07143 0,-0.71429 -0.17857,-1.07143 -0.53571,-1.07143 -0.33334,0 -0.53572,-0.3373 -0.53572,-0.89286 0,-0.71428 -0.17857,-0.89285 -0.89285,-0.89285 -0.55556,0 -0.89286,-0.20239 -0.89286,-0.53572 0,-0.41667 -0.47619,-0.53571 -2.14286,-0.53571 -1.66667,0 -2.14286,0.11904 -2.14286,0.53571 0,0.29464 -0.15887,0.53572 -0.35306,0.53572 -0.19418,0 -0.67632,0.27678 -1.07143,0.61508 -0.9179,0.78594 -1.06782,4.38492 -0.18265,4.38492 0.29464,0 0.53572,0.22959 0.53572,0.5102 0,1.14686 1.07026,1.63265 3.59693,1.63265 1.96146,0 2.47449,-0.11107 2.47449,-0.53571 z"
       id="path3040" />
  </g>
  <g
     id="layer3"
     transform="translate(-380,-473.43362)">
    <path
       style="fill:none;stroke:#000000;stroke-width:1px;stroke-linecap:butt;stroke-linejoin:miter;stroke-opacity:1"
       d="m 396.07143,506.6479 137.85714,0 -52.5,79.28571 -12.5,-16.42857 29.28572,-43.57143 -66.07143,0 44.28571,66.78571 -11.07143,16.78572 z"
       id="path3043" />
    <path
       style="fill:none;stroke:#000000;stroke-width:3.5;stroke-miterlimit:4;stroke-opacity:1;stroke-dasharray:none"
       id="path3877"
       d="m 112.5,124.64286 c 0,2.76142 -2.23858,5 -5,5 -2.76142,0 -5,-2.23858 -5,-5 0,-2.76142 2.23858,-5 5,-5 2.76142,0 5,2.23858 5,5 z"
       transform="translate(380,473.43362)" />
    <path
       style="fill:#000000;fill-rule:nonzero;stroke:#000000;stroke-width:0.37499997;stroke-miterlimit:4;stroke-opacity:1;stroke-dasharray:none"
       d="m 83.945141,134.96688 c -0.736607,-1.09667 -1.689348,-2.52231 -2.117204,-3.16809 -0.427855,-0.64578 -0.958485,-1.37505 -1.17918,-1.62058 -0.220693,-0.24554 -0.448205,-0.58056 -0.505582,-0.7445 C 80.085798,129.26977 65.449018,107.47683 47.616998,81.004954 29.784976,54.533075 15.195141,32.830152 15.195141,32.776237 c 0,-0.05392 31.426339,-0.09803 69.836309,-0.09803 38.40997,0 69.80952,0.06702 69.77679,0.148942 -0.20248,0.506657 -53.29661,80.506581 -53.3937,80.451311 -0.25145,-0.14316 -13.005113,-17.012851 -13.005113,-17.202298 0,-0.109643 6.4667,-9.818589 14.370443,-21.575437 l 14.37045,-21.37609 -31.89972,-0.04513 c -17.544843,-0.02482 -31.928986,-0.01586 -31.964763,0.01991 -0.03578,0.03578 9.784556,14.914043 21.822956,33.062816 12.0384,18.148779 21.864325,33.092339 21.835389,33.207919 -0.06828,0.27274 -11.452923,17.57368 -11.57047,17.58333 -0.04911,0.004 -0.691964,-0.88994 -1.428571,-1.9866 z m 11.392202,-16.38769 c -0.24639,-0.39453 -0.419868,-0.34536 -0.259152,0.0735 0.05816,0.15156 0.189302,0.27556 0.29143,0.27556 0.117529,0 0.105679,-0.12812 -0.03228,-0.34902 l 0,0 z m -1.213631,-1.79384 c -0.105125,-0.19643 -0.231316,-0.35714 -0.280423,-0.35714 -0.04911,0 -0.0033,0.16071 0.101852,0.35714 0.105125,0.19643 0.231316,0.35714 0.280423,0.35714 0.04911,0 0.0033,-0.16071 -0.101852,-0.35714 z m -0.757287,-1.15582 c -0.365293,-0.56149 -0.40925,-0.58354 -0.465029,-0.23322 -0.03543,0.2225 0.07392,0.48599 0.257345,0.62011 0.548952,0.4014 0.62652,0.2569 0.207684,-0.38689 z m -1.481702,-2.19239 c -0.604857,-0.94062 -0.796725,-1.19464 -0.796725,-1.05478 0,0.33512 0.806988,1.54585 1.030357,1.54585 0.04518,0 -0.05995,-0.22098 -0.233632,-0.49107 z m 10.051487,-2.63364 c 0.44851,-0.69242 0.47996,-0.80386 0.22685,-0.80386 -0.0962,0 -0.33893,0.32143 -0.53935,0.71428 -0.44755,0.87729 -0.23685,0.93769 0.3125,0.0896 z m -12.579187,-1.17402 c -0.255032,-0.4338 -0.336012,-0.48302 -0.386657,-0.23502 -0.03523,0.17254 0.08057,0.41947 0.257345,0.54873 0.468942,0.3429 0.488062,0.29652 0.129312,-0.31371 l 0,0 z m 14.294057,-1.41342 c 0.91302,-1.37305 0.95303,-1.4668 0.56192,-1.31671 -0.14732,0.0565 -0.26786,0.20925 -0.26786,0.33938 0,0.13012 -0.23218,0.40191 -0.51595,0.60398 -0.35999,0.25633 -0.53808,0.5569 -0.58915,0.9943 -0.0403,0.3448 -0.0609,0.62691 -0.046,0.62691 0.015,0 0.40063,-0.56153 0.857,-1.24786 l 0,0 z m -15.982352,-1.16285 c -0.400271,-0.63839 -0.758967,-1.16072 -0.797105,-1.16072 -0.233145,0 -0.0072,0.76979 0.301868,1.02854 0.204162,0.17091 0.487477,0.53173 0.629586,0.80182 0.142109,0.27009 0.333762,0.49107 0.425898,0.49107 0.09214,0 -0.159975,-0.52232 -0.560247,-1.16071 l 0,0 z m 17.964942,-2.03171 c -0.13979,-0.13979 -0.61707,0.38148 -0.61313,0.66964 0.003,0.21666 0.0908,0.17768 0.34493,-0.15312 0.18753,-0.24407 0.30822,-0.4765 0.2682,-0.51652 z m -20.268143,-1.46573 c -0.109627,-0.20484 -0.242916,-0.32884 -0.2962,-0.27556 -0.14719,0.14719 0.08858,0.648 0.305064,0.648 0.132064,0 0.129346,-0.11419 -0.0089,-0.37244 l -7e-6,0 z m 22.147073,-1.27935 c 0.009,-0.29232 -0.17952,-0.10506 -0.44862,0.44643 l -0.28319,0.58036 0.36392,-0.44643 c 0.20015,-0.24554 0.3657,-0.5067 0.36789,-0.58036 l 0,0 z m -24.020482,-1.50229 c -0.461213,-0.67151 -0.789031,-1.073725 -0.728486,-0.893816 0.06055,0.179906 0.11008,0.482966 0.11008,0.673476 0,0.1919 0.190302,0.43307 0.426738,0.5408 0.234705,0.10694 0.518964,0.39685 0.631686,0.64424 0.112721,0.2474 0.248508,0.40626 0.301748,0.35302 0.05324,-0.0532 -0.280554,-0.64622 -0.741766,-1.31772 z m 9.987307,-0.0164 c -0.906498,-0.904366 -0.885468,-0.794027 0.108573,0.56965 0.430207,0.59018 0.643045,0.76707 0.682898,0.56757 0.03217,-0.16106 -0.319509,-0.66637 -0.791471,-1.13722 z m 14.751435,0.57066 c 0,-0.0433 -0.0804,-0.0787 -0.17858,-0.0787 -0.0982,0 -0.17857,0.0851 -0.17857,0.18911 0,0.10401 0.0804,0.13944 0.17857,0.0787 0.0982,-0.0607 0.17858,-0.1458 0.17858,-0.18911 z M 81.859898,98.290548 c -0.481248,-0.725019 -0.700552,-0.93598 -0.743418,-0.715144 -0.03344,0.17228 0.107182,0.492051 0.3125,0.710601 0.205316,0.21855 0.373304,0.48864 0.373304,0.600197 0,0.199287 0.565403,0.607557 0.681127,0.491832 0.03251,-0.03251 -0.248074,-0.521875 -0.623513,-1.087486 z m 10.33113,0.593018 c -0.06037,-0.411616 -0.393637,-0.882282 -1.146226,-1.618777 -0.881725,-0.862869 -1.042661,-1.111921 -0.951984,-1.473214 0.133462,-0.531754 0.0054,-0.563916 -0.261256,-0.06563 -0.17166,0.320752 -0.03153,0.590082 1.068504,2.053572 0.696343,0.926423 1.290827,1.684403 1.321077,1.684403 0.03025,0 0.0167,-0.26116 -0.03011,-0.580357 l 0,0 z m 19.353432,-2.772702 c -0.14903,-0.149032 -0.45635,0.165807 -0.45078,0.461813 0.005,0.265116 0.0374,0.259973 0.26601,-0.04215 0.14318,-0.189259 0.22633,-0.378109 0.18477,-0.419666 z m 0.61814,-0.76001 c 0.1452,-0.271306 0.13038,-0.322734 -0.0707,-0.245559 -0.13992,0.05369 -0.295,0.252885 -0.34462,0.442655 -0.10773,0.411938 0.15651,0.28655 0.41535,-0.197096 l 0,0 z M 90.765316,94.954995 c 0.223821,-0.177609 0.574205,-1.205357 0.410934,-1.205357 -0.02244,0 -0.253504,0.321428 -0.513484,0.714285 -0.47172,0.712816 -0.429807,0.913513 0.10255,0.491072 l 0,0 z m -11.32083,-0.304379 c -0.119883,-0.191962 -0.25255,-0.314439 -0.294818,-0.272173 -0.07653,0.07654 0.312632,0.621195 0.443851,0.621195 0.03791,0 -0.02915,-0.157059 -0.149033,-0.349022 l 0,0 z M 113.38577,93.48178 c 0.4032,-0.683376 0.21397,-0.867796 -0.23408,-0.228123 -0.25674,0.36655 -0.37442,0.853123 -0.20633,0.853123 0.0394,0 0.23759,-0.28125 0.44041,-0.625 z M 78.287743,92.921682 c -0.198904,-0.303566 -0.335963,-0.388389 -0.385831,-0.238786 -0.04254,0.127615 0.06961,0.339481 0.249216,0.470813 0.463831,0.339161 0.486095,0.301346 0.136615,-0.232027 z m 13.791905,-0.09486 c 0.17797,-0.560734 3.57e-4,-0.543402 -0.340168,0.03321 -0.258637,0.437837 -0.265818,0.510303 -0.04205,0.424437 0.148409,-0.05695 0.320407,-0.262891 0.382221,-0.457648 l 0,0 z m 22.113402,-0.58967 c 0.22626,-0.345307 0.23454,-0.420155 0.0381,-0.344791 -0.13797,0.05295 -0.29143,0.251418 -0.34102,0.441052 -0.11989,0.458471 -0.045,0.434668 0.30288,-0.09626 z m 1.35356,-2.125455 c 0.003,-0.08569 -0.11486,-0.05576 -0.26218,0.06651 -0.14732,0.122266 -0.26786,0.348357 -0.26786,0.502423 0,0.22425 0.0523,0.210984 0.26218,-0.06651 0.14419,-0.190646 0.26473,-0.416738 0.26786,-0.502423 z M 94.29955,89.412998 c -0.0029,-0.415103 -0.09258,-0.339396 -0.552477,0.466227 -0.165723,0.290309 -0.145511,0.304289 0.184552,0.127646 0.205775,-0.110128 0.369443,-0.374307 0.367925,-0.593873 l 0,0 z m 23.75273,-3.094707 c 0,-0.227009 -0.74709,0.548243 -1.00042,1.038129 -0.47893,0.926153 -0.24475,0.934855 0.37542,0.01395 0.34375,-0.510439 0.625,-0.983875 0.625,-1.052079 l 0,4e-6 z m -22.078277,0.556346 c 0.05653,-0.147321 0.07497,-0.267857 0.04097,-0.267857 -0.034,0 -0.161852,0.120536 -0.284118,0.267857 -0.128134,0.154392 -0.145489,0.267858 -0.04097,0.267858 0.09973,0 0.227584,-0.120536 0.284117,-0.267858 z m 23.523707,-2.62078 c 0.1414,-0.264205 0.14194,-0.334505 0.002,-0.247966 -0.10749,0.06643 -0.28423,0.286716 -0.39278,0.489527 -0.14139,0.264205 -0.14194,0.334505 -0.002,0.247966 0.10748,-0.06643 0.28423,-0.286716 0.39277,-0.489527 z M 72.337998,83.928209 c -0.209804,-0.294643 -0.420911,-0.535714 -0.469127,-0.535714 -0.113469,0 0.094,0.362232 0.434679,0.758928 0.429152,0.499718 0.450539,0.361132 0.03445,-0.223214 l 0,0 z m 25.696897,-0.255484 c -0.04698,-0.04698 -0.1918,0.09173 -0.321827,0.308248 -0.225879,0.376127 -0.222073,0.379932 0.08542,0.08542 0.177005,-0.169537 0.283389,-0.346685 0.236411,-0.393664 z m 23.410245,-2.444164 c 0,-0.09821 -0.0804,-0.128909 -0.17857,-0.06821 -0.0982,0.0607 -0.17857,0.190719 -0.17857,0.288934 0,0.09821 0.0804,0.128909 0.17857,0.06821 0.0982,-0.0607 0.17857,-0.19072 0.17857,-0.288934 z M 70.256762,80.795507 c -0.05816,-0.151557 -0.144041,-0.237261 -0.190848,-0.190452 -0.04681,0.04681 -0.03214,0.170811 0.0326,0.275559 0.176081,0.284904 0.278997,0.229556 0.15825,-0.08511 l 0,0 z m 51.902668,-0.538552 c 0,-0.04331 -0.0804,-0.07875 -0.17857,-0.07875 -0.0982,0 -0.17858,0.0851 -0.17858,0.189111 0,0.10401 0.0804,0.139446 0.17858,0.07875 0.0982,-0.0607 0.17857,-0.1458 0.17857,-0.189111 z m 1.33556,-2.069439 0.49017,-0.740695 -0.55572,0.395711 c -0.30565,0.217641 -0.55573,0.550954 -0.55573,0.740693 0,0.484825 0.0667,0.442359 0.62128,-0.395709 l 0,0 z M 68.194486,77.68633 c -0.119883,-0.191962 -0.242992,-0.324 -0.273574,-0.293416 -0.105851,0.105852 0.170245,0.642438 0.330561,0.642438 0.08854,0 0.06289,-0.157059 -0.05699,-0.349022 l 0,0 z m 56.107794,-0.64366 c 0,-0.04331 -0.0803,-0.07875 -0.17857,-0.07875 -0.0982,0 -0.17857,0.0851 -0.17857,0.189111 0,0.104011 0.0804,0.139446 0.17857,0.07875 0.0982,-0.0607 0.17857,-0.1458 0.17857,-0.18911 z m 1.09439,-1.730533 c 0.19412,-0.364325 0.18639,-0.378935 -0.083,-0.156707 -0.1634,0.134795 -0.29709,0.315599 -0.29709,0.401786 0,0.272766 0.15868,0.17045 0.3801,-0.245079 z m -21.15601,-0.588058 c 0.16072,-0.418817 -0.0128,-0.467993 -0.25915,-0.07346 -0.13796,0.220905 -0.14981,0.349021 -0.0323,0.349021 0.10213,0 0.23328,-0.124001 0.29143,-0.275558 l 0,0 z m 23.16132,-2.396804 c 0.37446,-0.565852 0.40613,-0.685821 0.15766,-0.59728 -0.54187,0.193092 -0.75736,0.443703 -0.75736,0.880792 0,0.233511 0.0295,0.424565 0.0656,0.424565 0.0361,0 0.27642,-0.318634 0.53414,-0.708077 l 0,0 z M 64.145871,71.559161 c -0.17636,-0.175047 -0.196871,-0.154536 -0.09996,0.09996 0.06706,0.176111 0.166909,0.275218 0.221889,0.220237 0.05498,-0.05498 1.15e-4,-0.199069 -0.121925,-0.320201 z m 65.416369,-2.609088 c -0.13978,-0.139789 -0.61707,0.381482 -0.61313,0.669643 0.003,0.216654 0.0908,0.177675 0.34493,-0.153125 0.18753,-0.244068 0.30822,-0.476502 0.2682,-0.516518 z m 1.77247,-2.620425 c 0.061,-0.158914 0.031,-0.230593 -0.0702,-0.168032 -0.0971,0.06 -0.17652,0.184714 -0.17652,0.277132 0,0.256863 0.12799,0.200261 0.24671,-0.1091 z M 60.227878,65.675232 c -0.128135,-0.128136 -0.211309,-0.138678 -0.211309,-0.02679 0,0.10149 0.05357,0.238097 0.119049,0.303572 0.06547,0.06548 0.160564,0.07753 0.211309,0.02679 0.05074,-0.05074 -0.0028,-0.18735 -0.119049,-0.303572 z m 73.267532,-2.791996 c -0.16374,-0.163732 -0.62164,0.392923 -0.62052,0.754337 0.001,0.337147 0.0404,0.320422 0.34952,-0.148534 0.19159,-0.29065 0.31354,-0.56326 0.271,-0.605803 l 0,0 z m 1.76787,-2.446445 c 0.061,-0.158914 0.031,-0.230593 -0.0702,-0.168032 -0.0971,0.06 -0.17653,0.184714 -0.17653,0.277132 0,0.256863 0.12799,0.200261 0.24671,-0.1091 z m 3.96135,-6.012714 c 0.23066,-0.43067 0.22957,-0.474429 -0.01,-0.382681 -0.14848,0.05698 -0.26997,0.210061 -0.26997,0.340186 0,0.130127 -0.23193,0.401745 -0.51541,0.603596 -0.33325,0.237297 -0.55754,0.591613 -0.63463,1.002522 -0.0812,0.432939 -0.25845,0.698953 -0.55602,0.834532 -0.24024,0.109461 -0.43679,0.294359 -0.43679,0.410889 0,0.116529 -0.16072,0.397175 -0.35715,0.623659 -0.19642,0.226484 -0.35701,0.620477 -0.35686,0.875538 1.8e-4,0.360468 0.3205,-0.01348 1.4381,-1.679109 0.7908,-1.178572 1.55502,-2.361681 1.69825,-2.629132 l 1e-5,0 z M 33.052284,57.053209 c -0.126206,-0.152068 -0.269643,-0.236309 -0.31875,-0.187202 -0.04911,0.04911 0.01396,0.213705 0.140178,0.365773 0.126206,0.152068 0.269643,0.236309 0.31875,0.187202 0.04911,-0.04911 -0.01396,-0.213705 -0.140178,-0.365773 z m 85.074386,-3.061273 c 0.17013,-0.44335 -0.0174,-0.503888 -0.24477,-0.07902 -0.1097,0.204972 -0.12479,0.372438 -0.0336,0.372438 0.0912,0 0.21642,-0.132038 0.27835,-0.293416 z m 22.507,-1.827577 c -0.13979,-0.139789 -0.61707,0.381482 -0.61313,0.669643 0.003,0.216653 0.0908,0.177675 0.34493,-0.153125 0.18753,-0.244068 0.30822,-0.476502 0.2682,-0.516518 z m -37.55086,-0.334354 c -8.38053,-0.02567 -22.041244,-0.02566 -30.357141,6e-6 -8.315898,0.02567 -1.4591,0.04667 15.237329,0.04666 16.696432,-2e-6 23.500342,-0.021 15.119812,-0.04667 z M 29.048484,51.290028 c -0.307489,-0.294516 -0.311294,-0.29071 -0.08542,0.08542 0.130026,0.216516 0.274848,0.355226 0.321827,0.308248 0.04698,-0.04698 -0.05941,-0.224127 -0.236411,-0.393665 z M 143.49081,47.878645 c -0.13978,-0.139789 -0.61706,0.381481 -0.61313,0.669643 0.003,0.216653 0.0908,0.177674 0.34493,-0.153126 0.18753,-0.244068 0.30822,-0.476501 0.2682,-0.516517 z M 26.904723,48.075743 c -0.308527,-0.294683 -0.313317,-0.289893 -0.108831,0.108831 0.117644,0.229394 0.262873,0.368106 0.32273,0.308249 0.05986,-0.05986 -0.0364,-0.247544 -0.213899,-0.41708 l 0,0 z M 147.5126,41.91928 c 0.002,-0.07366 -0.0603,-0.133928 -0.13889,-0.133928 -0.26654,0 -0.57144,0.426973 -0.56745,0.794643 0.004,0.34232 0.0266,0.337107 0.35317,-0.08036 0.19206,-0.245535 0.35098,-0.506696 0.35317,-0.580357 z M 23.047301,42.047205 c -0.373476,-0.450011 -0.554633,-0.285767 -0.230476,0.20896 0.169668,0.258947 0.339832,0.376781 0.378141,0.261853 0.03831,-0.114928 -0.02814,-0.326794 -0.147665,-0.470813 z M 149.30817,39.196066 c 0.24232,-0.330358 0.23854,-0.338763 -0.0505,-0.112063 -0.17187,0.134793 -0.3125,0.32899 -0.3125,0.431547 0,0.102558 0.0227,0.152986 0.0505,0.112064 0.0278,-0.04092 0.16842,-0.235119 0.3125,-0.431548 z M 19.115148,36.328604 c -0.315333,-0.379954 -0.417944,-0.185192 -0.138325,0.26255 0.12925,0.206961 0.262951,0.292442 0.297113,0.189956 0.03416,-0.102486 -0.03729,-0.306114 -0.158788,-0.452506 l 0,0 z"
       id="path3891"
       transform="translate(380,473.43362)" />
    <path
       style="fill:#000000;fill-rule:nonzero;stroke:#000000;stroke-width:0.37499997;stroke-miterlimit:4;stroke-opacity:1;stroke-dasharray:none"
       d="m 84.014544,135.40142 c -0.658928,-0.95759 -1.814975,-2.625 -2.568992,-3.70535 C 80.691534,130.61571 71.167771,116.47285 60.281634,100.26749 49.395496,84.062137 34.717259,62.219014 27.663328,51.72722 20.609396,41.235426 14.837998,32.617122 14.837998,32.575434 c 0,-0.126608 138.600292,-0.05329 139.474132,0.07378 l 0.81341,0.118285 -10.15421,15.357142 C 124.90251,78.47653 101.5321,113.56632 101.41391,113.52446 101.08944,113.40955 88.230855,96.373288 88.230855,96.058314 c 0,-0.178105 10.495252,-15.949985 21.677755,-32.576534 l 6.72569,-10 -15.71958,-0.04561 c -8.645768,-0.02509 -22.782918,-0.02509 -31.415888,0 l -15.696309,0.04561 6.723095,10.180131 c 3.697701,5.599071 11.660685,17.652643 17.695519,26.785714 11.231925,16.998305 18.93829,28.767005 18.93829,28.921405 0,0.36086 -11.571452,17.77346 -11.811258,17.77346 -0.07457,0 -0.674696,-0.78348 -1.333625,-1.74107 z"
       id="path3895"
       transform="translate(380,473.43362)" />
  </g>
</svg>
